<svg id="visual" viewBox="0 0 900 600" width="900" height="600" xmlns="http://www.w3.org/2000/svg" xmlns:xlink="http://www.w3.org/1999/xlink" version="1.1"><rect x="0" y="0" width="900" height="600" fill="#fff"></rect><defs><linearGradient id="grad1_0" x1="33.3%" y1="0%" x2="100%" y2="100%"><stop offset="20%" stop-color="#cce7d0" stop-opacity="1"></stop><stop offset="80%" stop-color="#cce7d0" stop-opacity="1"></stop></linearGradient></defs><defs><linearGradient id="grad1_1" x1="33.3%" y1="0%" x2="100%" y2="100%"><stop offset="20%" stop-color="#cce7d0" stop-opacity="1"></stop><stop offset="80%" stop-color="#e5f3e7" stop-opacity="1"></stop></linearGradient></defs><defs><linearGradient id="grad1_2" x1="33.3%" y1="0%" x2="100%" y2="100%"><stop offset="20%" stop-color="#ffffff" stop-opacity="1"></stop><stop offset="80%" stop-color="#e5f3e7" stop-opacity="1"></stop></linearGradient></defs><defs><linearGradient id="grad2_0" x1="0%" y1="0%" x2="66.7%" y2="100%"><stop offset="20%" stop-color="#cce7d0" stop-opacity="1"></stop><stop offset="80%" stop-color="#cce7d0" stop-opacity="1"></stop></linearGradient></defs><defs><linearGradient id="grad2_1" x1="0%" y1="0%" x2="66.7%" y2="100%"><stop offset="20%" stop-color="#e5f3e7" stop-opacity="1"></stop><stop offset="80%" stop-color="#cce7d0" stop-opacity="1"></stop></linearGradient></defs><defs><linearGradient id="grad2_2" x1="0%" y1="0%" x2="66.7%" y2="100%"><stop offset="20%" stop-color="#e5f3e7" stop-opacity="1"></stop><stop offset="80%" stop-color="#ffffff" stop-opacity="1"></stop></linearGradient></defs><g transform="translate(900, 0)"><path d="M0 486.7C-49.9 445 -99.7 403.2 -159.2 384.3C-218.7 365.4 -287.8 369.4 -340.1 340.1C-392.5 310.9 -428.1 248.5 -449.7 186.3C-471.3 124.1 -479 62 -486.7 0L0 0Z" fill="#f2f9f3"></path><path d="M0 324.5C-33.2 296.7 -66.5 268.8 -106.1 256.2C-145.8 243.6 -191.8 246.2 -226.7 226.7C-261.6 207.3 -285.4 165.7 -299.8 124.2C-314.2 82.7 -319.4 41.4 -324.5 0L0 0Z" fill="#d9eddc"></path><path d="M0 162.2C-16.6 148.3 -33.2 134.4 -53.1 128.1C-72.9 121.8 -95.9 123.1 -113.4 113.4C-130.8 103.6 -142.7 82.8 -149.9 62.1C-157.1 41.4 -159.7 20.7 -162.2 0L0 0Z" fill="#cce7d0"></path></g><g transform="translate(0, 600)"><path d="M0 -486.7C47.3 -435.7 94.5 -384.7 150.4 -363.1C206.3 -341.4 270.7 -349.2 325.3 -325.3C379.8 -301.3 424.4 -245.8 449.7 -186.3C475 -126.8 480.9 -63.4 486.7 0L0 0Z" fill="#f2f9f3"></path><path d="M0 -324.5C31.5 -290.5 63 -256.5 100.3 -242.1C137.5 -227.6 180.5 -232.8 216.8 -216.8C253.2 -200.9 283 -163.8 299.8 -124.2C316.6 -84.5 320.6 -42.3 324.5 0L0 0Z" fill="#d9eddc"></path><path d="M0 -162.2C15.8 -145.2 31.5 -128.2 50.1 -121C68.8 -113.8 90.2 -116.4 108.4 -108.4C126.6 -100.4 141.5 -81.9 149.9 -62.1C158.3 -42.3 160.3 -21.1 162.2 0L0 0Z" fill="#cce7d0"></path></g></svg>